<svg viewBox="0 0 32 32" xmlns="http://www.w3.org/2000/svg">
  <circle cx="16" cy="16" r="15" fill="#0b3a25"/>
  <circle cx="16" cy="16" r="12.5" fill="none" stroke="#1ed760" stroke-opacity="0.3" stroke-width="0.5"/>

  <path d="M10 11 C12.5 10, 14.5 10.5, 16 11.5 C17.5 10.5, 19.5 10, 22 11 L22 21.5 C19.5 20.5, 17.5 20.5, 16 21.5 C14.5 20.5, 12.5 20.5, 10 21.5 Z" fill="#06130d"/>
  <path d="M16 11.5 C14.5 10.5, 12.5 11, 11 12 L11 20.5 C12.5 19.5, 14.5 19.5, 16 20.5 Z" fill="#eafff2"/>
  <path d="M16 11.5 C17.5 10.5, 19.5 11, 21 12 L21 20.5 C19.5 19.5, 17.5 19.5, 16 20.5 Z" fill="#dffbea"/>

  <line x1="16" y1="12" x2="16" y2="20.5" stroke="#0b1a12" stroke-width="0.3" opacity="0.4"/>
</svg>
